# xmcd
#
# Track frame offsets:
#	150
#	18148
#	43378
#	72763
#	100976
#	121301
#	144332
#	160473
#	181160
#	205279
#	233469
#	252513
#	262385
#	273525
#	286627
#
# Disc length: 4352 seconds
#
# Revision: 1
# Processed by: cddbd v1.5PL3 Copyright (c) Steve Scherf et al.
# Submitted via: audiograbber 1.82.01
#
DISCID=db10fe0f
DTITLE=Jimmy Buffett - 1981-03-14 - "An Evening With" - Disc 2
DYEAR=1900
DGENRE=
TTITLE0=Jimmy Buffett - Changes In Latitudes, Changes In Attitudes
TTITLE1=Jimmy Buffett - A Pirate Looks At 40
TTITLE2=Jimmy Buffett - Treat Her Like A Lady
TTITLE3=Jimmy Buffett - Dixie Diner
TTITLE4=Jimmy Buffett - Survive
TTITLE5=Jimmy Buffett - Margaritaville
TTITLE6=Jimmy Buffett - Volcano
TTITLE7=Jimmy Buffett - A Pirate Looks At 40
TTITLE8=Jimmy Buffett - Come Monday
TTITLE9=Jimmy Buffett - Gypsies In The Palace
TTITLE10=Jimmy Buffett - Glad I Stayed Home
TTITLE11=Jimmy Buffett - Gypsy Song Man
TTITLE12=Jimmy Buffett - Hello Texas
TTITLE13=Jimmy Buffett - I Don't Know
TTITLE14=Jimmy Buffett - Vahevala
EXTD=
EXTT0=
EXTT1=
EXTT2=
EXTT3=
EXTT4=
EXTT5=
EXTT6=
EXTT7=
EXTT8=
EXTT9=
EXTT10=
EXTT11=
EXTT12=
EXTT13=
EXTT14=
PLAYORDER=
